<svg width="264" height="246" viewBox="0 0 264 246" fill="none" xmlns="http://www.w3.org/2000/svg">
<g clip-path="url(#clip0_52_1594)">
<rect width="264" height="246" rx="10" fill="#EAFFFC"/>
<rect x="206" y="191" width="85" height="85" rx="42.5" fill="#41DDB2"/>
<g clip-path="url(#clip1_52_1594)">
<path fill-rule="evenodd" clip-rule="evenodd" d="M105 74.3419C105 81.3216 110.678 87 117.656 87H146.344C153.322 87 159 81.3216 159 74.3419V56.592C159 52.6689 157.138 48.9063 154.019 46.5273L139.675 35.5855C135.156 32.1382 128.844 32.1382 124.325 35.5855L109.981 46.5273C106.862 48.9064 105 52.669 105 56.592V74.3419ZM126.883 38.9403C128.389 37.7913 130.195 37.2167 132 37.2167C133.805 37.2167 135.611 37.7913 137.117 38.9404L151.461 49.8822C153.54 51.4683 154.781 53.9766 154.781 56.592V74.3419C154.781 78.995 150.996 82.7806 146.344 82.7806H117.656C113.004 82.7806 109.219 78.995 109.219 74.3419V56.592C109.219 53.9766 110.46 51.4682 112.539 49.8821L126.883 38.9403ZM132 62.3167C127.929 62.3167 124.617 59.0043 124.617 54.9328C124.617 50.8613 127.929 47.549 132 47.549C136.071 47.549 139.383 50.8613 139.383 54.9328C139.383 59.0043 136.071 62.3167 132 62.3167ZM128.836 54.9328C128.836 53.188 130.255 51.7683 132 51.7683C133.745 51.7683 135.164 53.188 135.164 54.9328C135.164 56.6777 133.745 58.0973 132 58.0973C130.255 58.0973 128.836 56.6777 128.836 54.9328Z" fill="url(#paint0_linear_52_1594)"/>
<path d="M142.473 77.9999C141.298 77.9999 140.345 77.0752 140.345 75.9343C140.345 72.4035 137.369 69.5311 133.711 69.5311H132.089C128.431 69.5311 125.455 72.4035 125.455 75.9343C125.455 77.0752 124.502 77.9999 123.327 77.9999C122.152 77.9999 121.2 77.0752 121.2 75.9343C121.2 70.1256 126.085 65.3999 132.089 65.3999H133.711C139.715 65.3999 144.6 70.1256 144.6 75.9343C144.6 77.075 143.648 77.9999 142.473 77.9999Z" fill="#35B6B4"/>
</g>
<path d="M106.822 114.455V129H105.06V114.455H106.822ZM118.222 129L114.899 118.091H116.66L119.018 126.443H119.132L121.461 118.091H123.251L125.552 126.415H125.666L128.024 118.091H129.785L126.461 129H124.813L122.427 120.619H122.257L119.87 129H118.222ZM135.211 129.256C134.52 129.256 133.892 129.125 133.329 128.865C132.766 128.6 132.318 128.219 131.987 127.722C131.655 127.22 131.49 126.614 131.49 125.903C131.49 125.278 131.613 124.772 131.859 124.384C132.105 123.991 132.434 123.683 132.846 123.46C133.258 123.238 133.713 123.072 134.21 122.963C134.712 122.849 135.216 122.759 135.722 122.693C136.385 122.608 136.923 122.544 137.335 122.501C137.751 122.454 138.054 122.376 138.244 122.267C138.438 122.158 138.535 121.969 138.535 121.699V121.642C138.535 120.941 138.343 120.397 137.96 120.009C137.581 119.62 137.006 119.426 136.234 119.426C135.434 119.426 134.806 119.601 134.352 119.952C133.897 120.302 133.578 120.676 133.393 121.074L131.802 120.506C132.086 119.843 132.465 119.327 132.938 118.957C133.417 118.583 133.937 118.323 134.501 118.176C135.069 118.025 135.628 117.949 136.177 117.949C136.527 117.949 136.93 117.991 137.384 118.077C137.844 118.157 138.286 118.325 138.713 118.581C139.143 118.837 139.501 119.223 139.785 119.739C140.069 120.255 140.211 120.946 140.211 121.812V129H138.535V127.523H138.45C138.336 127.759 138.147 128.013 137.882 128.283C137.616 128.553 137.264 128.782 136.823 128.972C136.383 129.161 135.846 129.256 135.211 129.256ZM135.467 127.75C136.13 127.75 136.688 127.62 137.143 127.359C137.602 127.099 137.948 126.763 138.18 126.351C138.417 125.939 138.535 125.506 138.535 125.051V123.517C138.464 123.602 138.308 123.68 138.066 123.751C137.829 123.818 137.555 123.877 137.242 123.929C136.935 123.976 136.634 124.019 136.34 124.057C136.052 124.09 135.817 124.118 135.637 124.142C135.202 124.199 134.794 124.291 134.416 124.419C134.042 124.542 133.739 124.729 133.507 124.98C133.279 125.226 133.166 125.562 133.166 125.989C133.166 126.571 133.381 127.011 133.812 127.31C134.248 127.603 134.799 127.75 135.467 127.75ZM144.947 122.438V129H143.27V118.091H144.89V119.795H145.032C145.287 119.241 145.676 118.796 146.197 118.46C146.717 118.119 147.39 117.949 148.214 117.949C148.952 117.949 149.599 118.1 150.153 118.403C150.706 118.702 151.137 119.156 151.445 119.767C151.753 120.373 151.907 121.14 151.907 122.068V129H150.231V122.182C150.231 121.325 150.008 120.657 149.563 120.179C149.118 119.696 148.507 119.455 147.731 119.455C147.196 119.455 146.717 119.571 146.296 119.803C145.879 120.035 145.55 120.373 145.309 120.818C145.067 121.263 144.947 121.803 144.947 122.438ZM159.714 118.091V119.511H154.061V118.091H159.714ZM155.708 115.477H157.384V125.875C157.384 126.348 157.453 126.704 157.59 126.94C157.732 127.172 157.912 127.329 158.13 127.409C158.353 127.485 158.587 127.523 158.833 127.523C159.018 127.523 159.169 127.513 159.288 127.494C159.406 127.471 159.501 127.452 159.572 127.438L159.913 128.943C159.799 128.986 159.641 129.028 159.437 129.071C159.233 129.118 158.975 129.142 158.663 129.142C158.189 129.142 157.725 129.04 157.271 128.837C156.821 128.633 156.447 128.323 156.149 127.906C155.855 127.49 155.708 126.964 155.708 126.33V115.477Z" fill="#808080"/>
<path d="M87.8746 165V147.545H94.2667C95.5053 147.545 96.5309 147.75 97.3434 148.159C98.1559 148.562 98.7638 149.111 99.1673 149.804C99.5707 150.491 99.7724 151.267 99.7724 152.131C99.7724 152.858 99.6389 153.472 99.3718 153.972C99.1048 154.466 98.7468 154.864 98.2979 155.165C97.8548 155.46 97.3661 155.676 96.832 155.812V155.983C97.4116 156.011 97.9769 156.199 98.5281 156.545C99.0849 156.886 99.5451 157.372 99.9087 158.003C100.272 158.634 100.454 159.401 100.454 160.304C100.454 161.196 100.244 161.997 99.8235 162.707C99.4087 163.412 98.7667 163.972 97.8974 164.386C97.0281 164.795 95.9173 165 94.565 165H87.8746ZM90.5082 162.741H94.3093C95.5707 162.741 96.4741 162.497 97.0195 162.009C97.565 161.52 97.8377 160.909 97.8377 160.176C97.8377 159.625 97.6985 159.119 97.4201 158.659C97.1417 158.199 96.744 157.832 96.2269 157.56C95.7156 157.287 95.1076 157.151 94.4031 157.151H90.5082V162.741ZM90.5082 155.097H94.0366C94.6275 155.097 95.1587 154.983 95.6303 154.756C96.1076 154.528 96.4854 154.21 96.7638 153.801C97.0479 153.386 97.19 152.898 97.19 152.335C97.19 151.614 96.9371 151.009 96.4315 150.52C95.9258 150.031 95.1502 149.787 94.1048 149.787H90.5082V155.097ZM111.666 159.571V151.909H114.223V165H111.717V162.733H111.581C111.279 163.432 110.797 164.014 110.132 164.48C109.473 164.94 108.652 165.17 107.669 165.17C106.828 165.17 106.083 164.986 105.436 164.616C104.794 164.241 104.288 163.688 103.919 162.955C103.555 162.222 103.373 161.315 103.373 160.236V151.909H105.922V159.929C105.922 160.821 106.169 161.531 106.663 162.06C107.157 162.588 107.799 162.852 108.589 162.852C109.066 162.852 109.541 162.733 110.012 162.494C110.49 162.256 110.885 161.895 111.197 161.412C111.515 160.929 111.672 160.315 111.666 159.571ZM117.647 165V151.909H120.195V165H117.647ZM118.934 149.889C118.49 149.889 118.11 149.741 117.792 149.446C117.479 149.145 117.323 148.787 117.323 148.372C117.323 147.952 117.479 147.594 117.792 147.298C118.11 146.997 118.49 146.847 118.934 146.847C119.377 146.847 119.755 146.997 120.067 147.298C120.385 147.594 120.544 147.952 120.544 148.372C120.544 148.787 120.385 149.145 120.067 149.446C119.755 149.741 119.377 149.889 118.934 149.889ZM126.172 147.545V165H123.623V147.545H126.172ZM134.5 165.256C133.444 165.256 132.5 164.986 131.671 164.446C130.847 163.901 130.199 163.125 129.728 162.119C129.262 161.108 129.029 159.895 129.029 158.48C129.029 157.065 129.265 155.855 129.736 154.849C130.213 153.844 130.867 153.074 131.696 152.54C132.526 152.006 133.466 151.739 134.517 151.739C135.33 151.739 135.983 151.875 136.478 152.148C136.978 152.415 137.364 152.727 137.637 153.085C137.915 153.443 138.131 153.759 138.284 154.031H138.438V147.545H140.986V165H138.498V162.963H138.284C138.131 163.241 137.909 163.56 137.62 163.918C137.336 164.276 136.944 164.588 136.444 164.855C135.944 165.122 135.296 165.256 134.5 165.256ZM135.063 163.082C135.796 163.082 136.415 162.889 136.921 162.503C137.432 162.111 137.819 161.568 138.08 160.875C138.347 160.182 138.48 159.375 138.48 158.455C138.48 157.545 138.35 156.75 138.088 156.068C137.827 155.386 137.444 154.855 136.938 154.474C136.432 154.094 135.807 153.903 135.063 153.903C134.296 153.903 133.657 154.102 133.145 154.5C132.634 154.898 132.248 155.44 131.986 156.128C131.73 156.815 131.603 157.591 131.603 158.455C131.603 159.33 131.733 160.116 131.995 160.815C132.256 161.514 132.642 162.068 133.154 162.477C133.671 162.881 134.307 163.082 135.063 163.082ZM144.623 165V151.909H147.172V165H144.623ZM145.91 149.889C145.467 149.889 145.086 149.741 144.768 149.446C144.456 149.145 144.299 148.787 144.299 148.372C144.299 147.952 144.456 147.594 144.768 147.298C145.086 146.997 145.467 146.847 145.91 146.847C146.353 146.847 146.731 146.997 147.044 147.298C147.362 147.594 147.521 147.952 147.521 148.372C147.521 148.787 147.362 149.145 147.044 149.446C146.731 149.741 146.353 149.889 145.91 149.889ZM153.148 157.227V165H150.6V151.909H153.046V154.04H153.208C153.509 153.347 153.98 152.79 154.623 152.369C155.27 151.949 156.086 151.739 157.069 151.739C157.961 151.739 158.742 151.926 159.412 152.301C160.083 152.67 160.603 153.222 160.972 153.955C161.341 154.687 161.526 155.594 161.526 156.673V165H158.978V156.98C158.978 156.031 158.73 155.29 158.236 154.756C157.742 154.216 157.063 153.946 156.199 153.946C155.608 153.946 155.083 154.074 154.623 154.33C154.168 154.585 153.807 154.96 153.54 155.455C153.279 155.943 153.148 156.534 153.148 157.227ZM170.432 170.182C169.392 170.182 168.498 170.045 167.748 169.773C167.003 169.5 166.395 169.139 165.924 168.69C165.452 168.241 165.1 167.75 164.867 167.216L167.057 166.312C167.211 166.562 167.415 166.827 167.671 167.105C167.932 167.389 168.284 167.631 168.728 167.83C169.176 168.028 169.753 168.128 170.458 168.128C171.424 168.128 172.222 167.892 172.853 167.42C173.483 166.955 173.799 166.21 173.799 165.188V162.614H173.637C173.483 162.892 173.262 163.202 172.972 163.543C172.688 163.884 172.296 164.179 171.796 164.429C171.296 164.679 170.645 164.804 169.844 164.804C168.81 164.804 167.878 164.562 167.049 164.08C166.225 163.591 165.571 162.872 165.088 161.923C164.611 160.969 164.373 159.795 164.373 158.403C164.373 157.011 164.608 155.818 165.08 154.824C165.557 153.83 166.211 153.068 167.04 152.54C167.87 152.006 168.81 151.739 169.861 151.739C170.674 151.739 171.33 151.875 171.83 152.148C172.33 152.415 172.719 152.727 172.998 153.085C173.282 153.443 173.5 153.759 173.654 154.031H173.841V151.909H176.338V165.29C176.338 166.415 176.077 167.338 175.554 168.06C175.032 168.781 174.324 169.315 173.432 169.662C172.546 170.009 171.546 170.182 170.432 170.182ZM170.407 162.69C171.14 162.69 171.759 162.52 172.265 162.179C172.776 161.832 173.162 161.338 173.424 160.696C173.691 160.048 173.824 159.273 173.824 158.369C173.824 157.489 173.694 156.713 173.432 156.043C173.171 155.372 172.787 154.849 172.282 154.474C171.776 154.094 171.151 153.903 170.407 153.903C169.64 153.903 169 154.102 168.489 154.5C167.978 154.892 167.591 155.426 167.33 156.102C167.074 156.778 166.946 157.534 166.946 158.369C166.946 159.227 167.077 159.98 167.338 160.628C167.6 161.276 167.986 161.781 168.498 162.145C169.015 162.509 169.651 162.69 170.407 162.69Z" fill="#1D2939"/>
<path d="M231.156 220.406L237.719 226.969L250.844 212.906" stroke="white" stroke-width="3" stroke-linecap="round" stroke-linejoin="round"/>
<path d="M22.646 221V209.48L23.906 210.74H20.126V208.4H25.562V221H22.646ZM33.1508 221.216C32.1188 221.216 31.1948 220.964 30.3788 220.46C29.5628 219.944 28.9208 219.2 28.4528 218.228C27.9848 217.256 27.7508 216.08 27.7508 214.7C27.7508 213.32 27.9848 212.144 28.4528 211.172C28.9208 210.2 29.5628 209.462 30.3788 208.958C31.1948 208.442 32.1188 208.184 33.1508 208.184C34.1948 208.184 35.1188 208.442 35.9228 208.958C36.7388 209.462 37.3808 210.2 37.8488 211.172C38.3168 212.144 38.5508 213.32 38.5508 214.7C38.5508 216.08 38.3168 217.256 37.8488 218.228C37.3808 219.2 36.7388 219.944 35.9228 220.46C35.1188 220.964 34.1948 221.216 33.1508 221.216ZM33.1508 218.75C33.6428 218.75 34.0688 218.612 34.4288 218.336C34.8008 218.06 35.0888 217.622 35.2928 217.022C35.5088 216.422 35.6168 215.648 35.6168 214.7C35.6168 213.752 35.5088 212.978 35.2928 212.378C35.0888 211.778 34.8008 211.34 34.4288 211.064C34.0688 210.788 33.6428 210.65 33.1508 210.65C32.6708 210.65 32.2448 210.788 31.8728 211.064C31.5128 211.34 31.2248 211.778 31.0088 212.378C30.8048 212.978 30.7028 213.752 30.7028 214.7C30.7028 215.648 30.8048 216.422 31.0088 217.022C31.2248 217.622 31.5128 218.06 31.8728 218.336C32.2448 218.612 32.6708 218.75 33.1508 218.75ZM45.3676 221.216C44.3356 221.216 43.4116 220.964 42.5956 220.46C41.7796 219.944 41.1376 219.2 40.6696 218.228C40.2016 217.256 39.9676 216.08 39.9676 214.7C39.9676 213.32 40.2016 212.144 40.6696 211.172C41.1376 210.2 41.7796 209.462 42.5956 208.958C43.4116 208.442 44.3356 208.184 45.3676 208.184C46.4116 208.184 47.3356 208.442 48.1396 208.958C48.9556 209.462 49.5976 210.2 50.0656 211.172C50.5336 212.144 50.7676 213.32 50.7676 214.7C50.7676 216.08 50.5336 217.256 50.0656 218.228C49.5976 219.2 48.9556 219.944 48.1396 220.46C47.3356 220.964 46.4116 221.216 45.3676 221.216ZM45.3676 218.75C45.8596 218.75 46.2856 218.612 46.6456 218.336C47.0176 218.06 47.3056 217.622 47.5096 217.022C47.7256 216.422 47.8336 215.648 47.8336 214.7C47.8336 213.752 47.7256 212.978 47.5096 212.378C47.3056 211.778 47.0176 211.34 46.6456 211.064C46.2856 210.788 45.8596 210.65 45.3676 210.65C44.8876 210.65 44.4616 210.788 44.0896 211.064C43.7296 211.34 43.4416 211.778 43.2256 212.378C43.0216 212.978 42.9196 213.752 42.9196 214.7C42.9196 215.648 43.0216 216.422 43.2256 217.022C43.4416 217.622 43.7296 218.06 44.0896 218.336C44.4616 218.612 44.8876 218.75 45.3676 218.75ZM57.5844 221.216C56.5524 221.216 55.6284 220.964 54.8124 220.46C53.9964 219.944 53.3544 219.2 52.8864 218.228C52.4184 217.256 52.1844 216.08 52.1844 214.7C52.1844 213.32 52.4184 212.144 52.8864 211.172C53.3544 210.2 53.9964 209.462 54.8124 208.958C55.6284 208.442 56.5524 208.184 57.5844 208.184C58.6284 208.184 59.5524 208.442 60.3564 208.958C61.1724 209.462 61.8144 210.2 62.2824 211.172C62.7504 212.144 62.9844 213.32 62.9844 214.7C62.9844 216.08 62.7504 217.256 62.2824 218.228C61.8144 219.2 61.1724 219.944 60.3564 220.46C59.5524 220.964 58.6284 221.216 57.5844 221.216ZM57.5844 218.75C58.0764 218.75 58.5024 218.612 58.8624 218.336C59.2344 218.06 59.5224 217.622 59.7264 217.022C59.9424 216.422 60.0504 215.648 60.0504 214.7C60.0504 213.752 59.9424 212.978 59.7264 212.378C59.5224 211.778 59.2344 211.34 58.8624 211.064C58.5024 210.788 58.0764 210.65 57.5844 210.65C57.1044 210.65 56.6784 210.788 56.3064 211.064C55.9464 211.34 55.6584 211.778 55.4424 212.378C55.2384 212.978 55.1364 213.752 55.1364 214.7C55.1364 215.648 55.2384 216.422 55.4424 217.022C55.6584 217.622 55.9464 218.06 56.3064 218.336C56.6784 218.612 57.1044 218.75 57.5844 218.75ZM69.8012 221.216C68.7692 221.216 67.8452 220.964 67.0292 220.46C66.2132 219.944 65.5712 219.2 65.1032 218.228C64.6352 217.256 64.4012 216.08 64.4012 214.7C64.4012 213.32 64.6352 212.144 65.1032 211.172C65.5712 210.2 66.2132 209.462 67.0292 208.958C67.8452 208.442 68.7692 208.184 69.8012 208.184C70.8452 208.184 71.7692 208.442 72.5732 208.958C73.3892 209.462 74.0312 210.2 74.4992 211.172C74.9672 212.144 75.2012 213.32 75.2012 214.7C75.2012 216.08 74.9672 217.256 74.4992 218.228C74.0312 219.2 73.3892 219.944 72.5732 220.46C71.7692 220.964 70.8452 221.216 69.8012 221.216ZM69.8012 218.75C70.2932 218.75 70.7192 218.612 71.0792 218.336C71.4512 218.06 71.7392 217.622 71.9432 217.022C72.1592 216.422 72.2672 215.648 72.2672 214.7C72.2672 213.752 72.1592 212.978 71.9432 212.378C71.7392 211.778 71.4512 211.34 71.0792 211.064C70.7192 210.788 70.2932 210.65 69.8012 210.65C69.3212 210.65 68.8952 210.788 68.5232 211.064C68.1632 211.34 67.8752 211.778 67.6592 212.378C67.4552 212.978 67.3532 213.752 67.3532 214.7C67.3532 215.648 67.4552 216.422 67.6592 217.022C67.8752 217.622 68.1632 218.06 68.5232 218.336C68.8952 218.612 69.3212 218.75 69.8012 218.75ZM82.018 221.216C80.986 221.216 80.062 220.964 79.246 220.46C78.43 219.944 77.788 219.2 77.32 218.228C76.852 217.256 76.618 216.08 76.618 214.7C76.618 213.32 76.852 212.144 77.32 211.172C77.788 210.2 78.43 209.462 79.246 208.958C80.062 208.442 80.986 208.184 82.018 208.184C83.062 208.184 83.986 208.442 84.79 208.958C85.606 209.462 86.248 210.2 86.716 211.172C87.184 212.144 87.418 213.32 87.418 214.7C87.418 216.08 87.184 217.256 86.716 218.228C86.248 219.2 85.606 219.944 84.79 220.46C83.986 220.964 83.062 221.216 82.018 221.216ZM82.018 218.75C82.51 218.75 82.936 218.612 83.296 218.336C83.668 218.06 83.956 217.622 84.16 217.022C84.376 216.422 84.484 215.648 84.484 214.7C84.484 213.752 84.376 212.978 84.16 212.378C83.956 211.778 83.668 211.34 83.296 211.064C82.936 210.788 82.51 210.65 82.018 210.65C81.538 210.65 81.112 210.788 80.74 211.064C80.38 211.34 80.092 211.778 79.876 212.378C79.672 212.978 79.57 213.752 79.57 214.7C79.57 215.648 79.672 216.422 79.876 217.022C80.092 217.622 80.38 218.06 80.74 218.336C81.112 218.612 81.538 218.75 82.018 218.75ZM93.9145 221V219.11L101.708 209.714L102.068 210.776H94.0585V208.4H104.66V210.29L96.8845 219.686L96.5245 218.624H104.93V221H93.9145ZM106.801 221V208.4H109.213L114.577 217.292H113.299L118.573 208.4H120.967L121.003 221H118.267L118.249 212.594H118.753L114.541 219.668H113.227L108.925 212.594H109.537V221H106.801ZM126.963 221L122.841 208.4H125.865L129.447 219.56H127.935L131.679 208.4H134.379L137.979 219.56H136.521L140.193 208.4H142.983L138.861 221H135.729L132.543 211.208H133.371L130.095 221H126.963Z" fill="#0C7BC4"/>
</g>
<rect x="0.5" y="0.5" width="263" height="245" rx="9.5" stroke="#35B6B4"/>
<defs>
<linearGradient id="paint0_linear_52_1594" x1="127.95" y1="33" x2="127.68" y2="87" gradientUnits="userSpaceOnUse">
<stop stop-color="#41DDB2"/>
<stop offset="0.5" stop-color="#1FD3E6"/>
<stop offset="0.741" stop-color="#17CEF5"/>
</linearGradient>
<clipPath id="clip0_52_1594">
<rect width="264" height="246" rx="10" fill="white"/>
</clipPath>
<clipPath id="clip1_52_1594">
<rect width="54" height="54" fill="white" transform="translate(105 33)"/>
</clipPath>
</defs>
</svg>
