<svg width="264" height="246" viewBox="0 0 264 246" fill="none" xmlns="http://www.w3.org/2000/svg">
<g clip-path="url(#clip0_52_1565)">
<rect width="264" height="246" rx="10" fill="#EAFFFC"/>
<rect x="202" y="187" width="85" height="85" rx="42.5" fill="#283671"/>
<path d="M228 221C228 220.769 228.072 220.581 228.217 220.437C228.361 220.292 228.549 220.22 228.78 220.22H247.933L242.82 215.107C242.647 214.933 242.56 214.731 242.56 214.5C242.56 214.269 242.647 214.081 242.82 213.937C242.993 213.792 243.196 213.72 243.427 213.72C243.658 213.72 243.86 213.778 244.033 213.893L250.533 220.393C250.649 220.567 250.707 220.769 250.707 221C250.707 221.231 250.649 221.433 250.533 221.607L244.033 228.107C243.86 228.222 243.658 228.28 243.427 228.28C243.196 228.28 242.993 228.208 242.82 228.063C242.647 227.919 242.56 227.731 242.56 227.5C242.56 227.269 242.647 227.067 242.82 226.893L247.933 221.78H228.78C228.549 221.78 228.361 221.708 228.217 221.563C228.072 221.419 228 221.231 228 221Z" fill="white"/>
<g clip-path="url(#clip1_52_1565)">
<path fill-rule="evenodd" clip-rule="evenodd" d="M105 74.3419C105 81.3216 110.678 87 117.656 87H146.344C153.322 87 159 81.3216 159 74.3419V56.592C159 52.6689 157.138 48.9063 154.019 46.5273L139.675 35.5855C135.156 32.1382 128.844 32.1382 124.325 35.5855L109.981 46.5273C106.862 48.9064 105 52.669 105 56.592V74.3419ZM126.883 38.9403C128.389 37.7913 130.195 37.2167 132 37.2167C133.805 37.2167 135.611 37.7913 137.117 38.9404L151.461 49.8822C153.54 51.4683 154.781 53.9766 154.781 56.592V74.3419C154.781 78.995 150.996 82.7806 146.344 82.7806H117.656C113.004 82.7806 109.219 78.995 109.219 74.3419V56.592C109.219 53.9766 110.46 51.4682 112.539 49.8821L126.883 38.9403ZM132 62.3167C127.929 62.3167 124.617 59.0043 124.617 54.9328C124.617 50.8613 127.929 47.549 132 47.549C136.071 47.549 139.383 50.8613 139.383 54.9328C139.383 59.0043 136.071 62.3167 132 62.3167ZM128.836 54.9328C128.836 53.188 130.255 51.7683 132 51.7683C133.745 51.7683 135.164 53.188 135.164 54.9328C135.164 56.6777 133.745 58.0973 132 58.0973C130.255 58.0973 128.836 56.6777 128.836 54.9328Z" fill="url(#paint0_linear_52_1565)"/>
<path d="M142.473 77.9999C141.298 77.9999 140.345 77.0752 140.345 75.9343C140.345 72.4035 137.369 69.5311 133.711 69.5311H132.089C128.431 69.5311 125.455 72.4035 125.455 75.9343C125.455 77.0752 124.502 77.9999 123.327 77.9999C122.152 77.9999 121.2 77.0752 121.2 75.9343C121.2 70.1256 126.085 65.3999 132.089 65.3999H133.711C139.715 65.3999 144.6 70.1256 144.6 75.9343C144.6 77.075 143.648 77.9999 142.473 77.9999Z" fill="#35B6B4"/>
</g>
<path d="M106.822 114.455V129H105.06V114.455H106.822ZM118.222 129L114.899 118.091H116.66L119.018 126.443H119.132L121.461 118.091H123.251L125.552 126.415H125.666L128.024 118.091H129.785L126.461 129H124.813L122.427 120.619H122.257L119.87 129H118.222ZM135.211 129.256C134.52 129.256 133.892 129.125 133.329 128.865C132.766 128.6 132.318 128.219 131.987 127.722C131.655 127.22 131.49 126.614 131.49 125.903C131.49 125.278 131.613 124.772 131.859 124.384C132.105 123.991 132.434 123.683 132.846 123.46C133.258 123.238 133.713 123.072 134.21 122.963C134.712 122.849 135.216 122.759 135.722 122.693C136.385 122.608 136.923 122.544 137.335 122.501C137.751 122.454 138.054 122.376 138.244 122.267C138.438 122.158 138.535 121.969 138.535 121.699V121.642C138.535 120.941 138.343 120.397 137.96 120.009C137.581 119.62 137.006 119.426 136.234 119.426C135.434 119.426 134.806 119.601 134.352 119.952C133.897 120.302 133.578 120.676 133.393 121.074L131.802 120.506C132.086 119.843 132.465 119.327 132.938 118.957C133.417 118.583 133.937 118.323 134.501 118.176C135.069 118.025 135.628 117.949 136.177 117.949C136.527 117.949 136.93 117.991 137.384 118.077C137.844 118.157 138.286 118.325 138.713 118.581C139.143 118.837 139.501 119.223 139.785 119.739C140.069 120.255 140.211 120.946 140.211 121.812V129H138.535V127.523H138.45C138.336 127.759 138.147 128.013 137.882 128.283C137.616 128.553 137.264 128.782 136.823 128.972C136.383 129.161 135.846 129.256 135.211 129.256ZM135.467 127.75C136.13 127.75 136.688 127.62 137.143 127.359C137.602 127.099 137.948 126.763 138.18 126.351C138.417 125.939 138.535 125.506 138.535 125.051V123.517C138.464 123.602 138.308 123.68 138.066 123.751C137.829 123.818 137.555 123.877 137.242 123.929C136.935 123.976 136.634 124.019 136.34 124.057C136.052 124.09 135.817 124.118 135.637 124.142C135.202 124.199 134.794 124.291 134.416 124.419C134.042 124.542 133.739 124.729 133.507 124.98C133.279 125.226 133.166 125.562 133.166 125.989C133.166 126.571 133.381 127.011 133.812 127.31C134.248 127.603 134.799 127.75 135.467 127.75ZM144.947 122.438V129H143.27V118.091H144.89V119.795H145.032C145.287 119.241 145.676 118.796 146.197 118.46C146.717 118.119 147.39 117.949 148.214 117.949C148.952 117.949 149.599 118.1 150.153 118.403C150.706 118.702 151.137 119.156 151.445 119.767C151.753 120.373 151.907 121.14 151.907 122.068V129H150.231V122.182C150.231 121.325 150.008 120.657 149.563 120.179C149.118 119.696 148.507 119.455 147.731 119.455C147.196 119.455 146.717 119.571 146.296 119.803C145.879 120.035 145.55 120.373 145.309 120.818C145.067 121.263 144.947 121.803 144.947 122.438ZM159.714 118.091V119.511H154.061V118.091H159.714ZM155.708 115.477H157.384V125.875C157.384 126.348 157.453 126.704 157.59 126.94C157.732 127.172 157.912 127.329 158.13 127.409C158.353 127.485 158.587 127.523 158.833 127.523C159.018 127.523 159.169 127.513 159.288 127.494C159.406 127.471 159.501 127.452 159.572 127.438L159.913 128.943C159.799 128.986 159.641 129.028 159.437 129.071C159.233 129.118 158.975 129.142 158.663 129.142C158.189 129.142 157.725 129.04 157.271 128.837C156.821 128.633 156.447 128.323 156.149 127.906C155.855 127.49 155.708 126.964 155.708 126.33V115.477Z" fill="#808080"/>
<path d="M29.7496 165V147.545H35.9712C37.3292 147.545 38.4542 147.793 39.3462 148.287C40.2383 148.781 40.9059 149.457 41.3491 150.315C41.7923 151.168 42.0139 152.128 42.0139 153.196C42.0139 154.27 41.7894 155.236 41.3406 156.094C40.8974 156.946 40.2269 157.622 39.3292 158.122C38.4371 158.616 37.315 158.864 35.9627 158.864H31.6843V156.631H35.7241C36.582 156.631 37.2781 156.483 37.8121 156.188C38.3462 155.886 38.7383 155.477 38.9883 154.96C39.2383 154.443 39.3633 153.855 39.3633 153.196C39.3633 152.537 39.2383 151.952 38.9883 151.44C38.7383 150.929 38.3434 150.528 37.8036 150.239C37.2695 149.949 36.565 149.804 35.69 149.804H32.3832V165H29.7496ZM50.3746 165.264C49.0849 165.264 47.9741 164.989 47.0423 164.438C46.1161 163.881 45.4002 163.099 44.8945 162.094C44.3945 161.082 44.1445 159.898 44.1445 158.54C44.1445 157.199 44.3945 156.017 44.8945 154.994C45.4002 153.972 46.1048 153.173 47.0082 152.599C47.9173 152.026 48.9798 151.739 50.1957 151.739C50.9343 151.739 51.6502 151.861 52.3434 152.105C53.0366 152.349 53.6587 152.733 54.2099 153.256C54.761 153.778 55.1957 154.457 55.5139 155.293C55.832 156.122 55.9911 157.131 55.9911 158.318V159.222H45.5849V157.312H53.494C53.494 156.642 53.3576 156.048 53.0849 155.531C52.8121 155.009 52.4286 154.597 51.9343 154.295C51.4457 153.994 50.8718 153.844 50.2127 153.844C49.4968 153.844 48.8718 154.02 48.3377 154.372C47.8093 154.719 47.4002 155.173 47.1104 155.736C46.8263 156.293 46.6843 156.898 46.6843 157.551V159.043C46.6843 159.918 46.8377 160.662 47.1445 161.276C47.457 161.889 47.8917 162.358 48.4485 162.682C49.0053 163 49.6559 163.159 50.4002 163.159C50.8832 163.159 51.3235 163.091 51.7212 162.955C52.119 162.812 52.4627 162.602 52.7525 162.324C53.0423 162.045 53.2638 161.702 53.4173 161.293L55.8292 161.727C55.636 162.437 55.2894 163.06 54.7894 163.594C54.2951 164.122 53.6729 164.534 52.9229 164.83C52.1786 165.119 51.3292 165.264 50.3746 165.264ZM58.8185 165V151.909H61.2816V153.989H61.418C61.6566 153.284 62.0771 152.73 62.6793 152.327C63.2873 151.918 63.9748 151.713 64.7418 151.713C64.9009 151.713 65.0884 151.719 65.3043 151.73C65.5259 151.741 65.6992 151.756 65.8242 151.773V154.21C65.7219 154.182 65.5401 154.151 65.2788 154.116C65.0174 154.077 64.756 154.057 64.4947 154.057C63.8924 154.057 63.3555 154.185 62.8839 154.44C62.418 154.69 62.0487 155.04 61.7759 155.489C61.5032 155.932 61.3668 156.437 61.3668 157.006V165H58.8185ZM77.8391 155.105L75.5295 155.514C75.4329 155.219 75.2795 154.937 75.0692 154.67C74.8647 154.403 74.5863 154.185 74.234 154.014C73.8817 153.844 73.4414 153.759 72.913 153.759C72.1914 153.759 71.5891 153.92 71.1062 154.244C70.6232 154.562 70.3817 154.974 70.3817 155.48C70.3817 155.918 70.5437 156.27 70.8675 156.537C71.1914 156.804 71.7141 157.023 72.4357 157.193L74.5153 157.67C75.7198 157.949 76.6175 158.378 77.2085 158.957C77.7994 159.537 78.0948 160.29 78.0948 161.216C78.0948 162 77.8675 162.699 77.413 163.312C76.9641 163.92 76.3363 164.398 75.5295 164.744C74.7283 165.091 73.7994 165.264 72.7425 165.264C71.2766 165.264 70.0806 164.952 69.1545 164.327C68.2283 163.696 67.6602 162.801 67.4499 161.642L69.913 161.267C70.0664 161.909 70.3817 162.395 70.859 162.724C71.3363 163.048 71.9585 163.21 72.7255 163.21C73.5607 163.21 74.2283 163.037 74.7283 162.69C75.2283 162.338 75.4783 161.909 75.4783 161.403C75.4783 160.994 75.3249 160.651 75.0181 160.372C74.717 160.094 74.2539 159.884 73.6289 159.741L71.413 159.256C70.1914 158.977 69.288 158.534 68.7028 157.926C68.1232 157.318 67.8335 156.548 67.8335 155.616C67.8335 154.844 68.0494 154.168 68.4812 153.588C68.913 153.009 69.5096 152.557 70.271 152.233C71.0323 151.903 71.9045 151.739 72.8874 151.739C74.3022 151.739 75.4158 152.045 76.2283 152.659C77.0408 153.267 77.5778 154.082 77.8391 155.105ZM86.4109 165.264C85.1836 165.264 84.1126 164.983 83.1978 164.42C82.283 163.858 81.5728 163.071 81.0671 162.06C80.5614 161.048 80.3086 159.866 80.3086 158.514C80.3086 157.156 80.5614 155.969 81.0671 154.952C81.5728 153.935 82.283 153.145 83.1978 152.582C84.1126 152.02 85.1836 151.739 86.4109 151.739C87.6381 151.739 88.7092 152.02 89.6239 152.582C90.5387 153.145 91.2489 153.935 91.7546 154.952C92.2603 155.969 92.5131 157.156 92.5131 158.514C92.5131 159.866 92.2603 161.048 91.7546 162.06C91.2489 163.071 90.5387 163.858 89.6239 164.42C88.7092 164.983 87.6381 165.264 86.4109 165.264ZM86.4194 163.125C87.2148 163.125 87.8739 162.915 88.3967 162.494C88.9194 162.074 89.3058 161.514 89.5558 160.815C89.8114 160.116 89.9393 159.347 89.9393 158.506C89.9393 157.67 89.8114 156.903 89.5558 156.205C89.3058 155.5 88.9194 154.935 88.3967 154.509C87.8739 154.082 87.2148 153.869 86.4194 153.869C85.6183 153.869 84.9535 154.082 84.4251 154.509C83.9023 154.935 83.5131 155.5 83.2575 156.205C83.0075 156.903 82.8825 157.67 82.8825 158.506C82.8825 159.347 83.0075 160.116 83.2575 160.815C83.5131 161.514 83.9023 162.074 84.4251 162.494C84.9535 162.915 85.6183 163.125 86.4194 163.125ZM97.9059 157.227V165H95.3576V151.909H97.8036V154.04H97.9656C98.2667 153.347 98.7383 152.79 99.3803 152.369C100.028 151.949 100.843 151.739 101.826 151.739C102.718 151.739 103.5 151.926 104.17 152.301C104.841 152.67 105.36 153.222 105.73 153.955C106.099 154.687 106.284 155.594 106.284 156.673V165H103.735V156.98C103.735 156.031 103.488 155.29 102.994 154.756C102.5 154.216 101.821 153.946 100.957 153.946C100.366 153.946 99.8406 154.074 99.3803 154.33C98.9258 154.585 98.565 154.96 98.2979 155.455C98.0366 155.943 97.9059 156.534 97.9059 157.227ZM113.511 165.29C112.681 165.29 111.931 165.136 111.261 164.83C110.591 164.517 110.059 164.065 109.667 163.474C109.281 162.884 109.088 162.159 109.088 161.301C109.088 160.562 109.23 159.955 109.514 159.477C109.798 159 110.181 158.622 110.664 158.344C111.147 158.065 111.687 157.855 112.284 157.713C112.88 157.571 113.488 157.463 114.108 157.389C114.892 157.298 115.528 157.224 116.017 157.168C116.505 157.105 116.86 157.006 117.082 156.869C117.304 156.733 117.414 156.511 117.414 156.205V156.145C117.414 155.401 117.204 154.824 116.784 154.415C116.369 154.006 115.75 153.801 114.926 153.801C114.068 153.801 113.392 153.991 112.897 154.372C112.409 154.747 112.071 155.165 111.883 155.625L109.488 155.08C109.772 154.284 110.187 153.642 110.733 153.153C111.284 152.659 111.917 152.301 112.633 152.08C113.349 151.852 114.102 151.739 114.892 151.739C115.414 151.739 115.968 151.801 116.554 151.926C117.145 152.045 117.696 152.267 118.207 152.591C118.724 152.915 119.147 153.378 119.477 153.98C119.806 154.577 119.971 155.352 119.971 156.307V165H117.483V163.21H117.38C117.216 163.54 116.968 163.864 116.639 164.182C116.309 164.5 115.886 164.764 115.369 164.974C114.852 165.185 114.233 165.29 113.511 165.29ZM114.065 163.244C114.77 163.244 115.372 163.105 115.872 162.827C116.377 162.548 116.761 162.185 117.022 161.736C117.289 161.281 117.423 160.795 117.423 160.278V158.591C117.332 158.682 117.156 158.767 116.895 158.847C116.639 158.92 116.346 158.986 116.017 159.043C115.687 159.094 115.366 159.142 115.054 159.188C114.741 159.227 114.48 159.261 114.27 159.29C113.775 159.352 113.324 159.457 112.914 159.605C112.511 159.753 112.187 159.966 111.943 160.244C111.704 160.517 111.585 160.881 111.585 161.335C111.585 161.966 111.818 162.443 112.284 162.767C112.75 163.085 113.343 163.244 114.065 163.244ZM125.914 147.545V165H123.365V147.545H125.914ZM137.373 165H134.577L140.858 147.545H143.901L150.182 165H147.387L142.452 150.716H142.316L137.373 165ZM137.841 158.165H146.909V160.381H137.841V158.165ZM157.801 165.264C156.534 165.264 155.444 164.977 154.529 164.403C153.62 163.824 152.921 163.026 152.432 162.009C151.944 160.991 151.699 159.827 151.699 158.514C151.699 157.185 151.949 156.011 152.449 154.994C152.949 153.972 153.654 153.173 154.563 152.599C155.472 152.026 156.543 151.739 157.776 151.739C158.77 151.739 159.657 151.923 160.435 152.293C161.213 152.656 161.841 153.168 162.319 153.827C162.801 154.486 163.088 155.256 163.179 156.136H160.699C160.563 155.523 160.25 154.994 159.762 154.551C159.279 154.108 158.631 153.886 157.819 153.886C157.108 153.886 156.486 154.074 155.952 154.449C155.424 154.818 155.012 155.347 154.716 156.034C154.421 156.716 154.273 157.523 154.273 158.455C154.273 159.409 154.418 160.233 154.708 160.926C154.998 161.619 155.407 162.156 155.935 162.537C156.469 162.918 157.097 163.108 157.819 163.108C158.301 163.108 158.739 163.02 159.131 162.844C159.529 162.662 159.861 162.403 160.128 162.068C160.401 161.733 160.591 161.33 160.699 160.858H163.179C163.088 161.705 162.813 162.46 162.353 163.125C161.892 163.79 161.276 164.312 160.503 164.693C159.736 165.074 158.836 165.264 157.801 165.264ZM171.419 165.264C170.152 165.264 169.061 164.977 168.146 164.403C167.237 163.824 166.538 163.026 166.049 162.009C165.561 160.991 165.316 159.827 165.316 158.514C165.316 157.185 165.566 156.011 166.066 154.994C166.566 153.972 167.271 153.173 168.18 152.599C169.089 152.026 170.16 151.739 171.393 151.739C172.387 151.739 173.274 151.923 174.052 152.293C174.831 152.656 175.458 153.168 175.936 153.827C176.419 154.486 176.706 155.256 176.797 156.136H174.316C174.18 155.523 173.868 154.994 173.379 154.551C172.896 154.108 172.248 153.886 171.436 153.886C170.725 153.886 170.103 154.074 169.569 154.449C169.041 154.818 168.629 155.347 168.333 156.034C168.038 156.716 167.89 157.523 167.89 158.455C167.89 159.409 168.035 160.233 168.325 160.926C168.615 161.619 169.024 162.156 169.552 162.537C170.086 162.918 170.714 163.108 171.436 163.108C171.919 163.108 172.356 163.02 172.748 162.844C173.146 162.662 173.478 162.403 173.745 162.068C174.018 161.733 174.208 161.33 174.316 160.858H176.797C176.706 161.705 176.43 162.46 175.97 163.125C175.51 163.79 174.893 164.312 174.12 164.693C173.353 165.074 172.453 165.264 171.419 165.264ZM179.522 165V151.909H182.07V165H179.522ZM180.809 149.889C180.365 149.889 179.985 149.741 179.667 149.446C179.354 149.145 179.198 148.787 179.198 148.372C179.198 147.952 179.354 147.594 179.667 147.298C179.985 146.997 180.365 146.847 180.809 146.847C181.252 146.847 181.63 146.997 181.942 147.298C182.26 147.594 182.419 147.952 182.419 148.372C182.419 148.787 182.26 149.145 181.942 149.446C181.63 149.741 181.252 149.889 180.809 149.889ZM190.399 165.256C189.342 165.256 188.399 164.986 187.569 164.446C186.745 163.901 186.098 163.125 185.626 162.119C185.16 161.108 184.927 159.895 184.927 158.48C184.927 157.065 185.163 155.855 185.635 154.849C186.112 153.844 186.765 153.074 187.595 152.54C188.424 152.006 189.365 151.739 190.416 151.739C191.228 151.739 191.882 151.875 192.376 152.148C192.876 152.415 193.262 152.727 193.535 153.085C193.814 153.443 194.029 153.759 194.183 154.031H194.336V147.545H196.885V165H194.396V162.963H194.183C194.029 163.241 193.808 163.56 193.518 163.918C193.234 164.276 192.842 164.588 192.342 164.855C191.842 165.122 191.194 165.256 190.399 165.256ZM190.961 163.082C191.694 163.082 192.314 162.889 192.819 162.503C193.331 162.111 193.717 161.568 193.978 160.875C194.245 160.182 194.379 159.375 194.379 158.455C194.379 157.545 194.248 156.75 193.987 156.068C193.725 155.386 193.342 154.855 192.836 154.474C192.331 154.094 191.706 153.903 190.961 153.903C190.194 153.903 189.555 154.102 189.044 154.5C188.532 154.898 188.146 155.44 187.885 156.128C187.629 156.815 187.501 157.591 187.501 158.455C187.501 159.33 187.632 160.116 187.893 160.815C188.154 161.514 188.541 162.068 189.052 162.477C189.569 162.881 190.206 163.082 190.961 163.082ZM206.164 165.264C204.874 165.264 203.763 164.989 202.831 164.438C201.905 163.881 201.189 163.099 200.684 162.094C200.184 161.082 199.934 159.898 199.934 158.54C199.934 157.199 200.184 156.017 200.684 154.994C201.189 153.972 201.894 153.173 202.797 152.599C203.706 152.026 204.769 151.739 205.985 151.739C206.723 151.739 207.439 151.861 208.132 152.105C208.826 152.349 209.448 152.733 209.999 153.256C210.55 153.778 210.985 154.457 211.303 155.293C211.621 156.122 211.78 157.131 211.78 158.318V159.222H201.374V157.312H209.283C209.283 156.642 209.147 156.048 208.874 155.531C208.601 155.009 208.218 154.597 207.723 154.295C207.235 153.994 206.661 153.844 206.002 153.844C205.286 153.844 204.661 154.02 204.127 154.372C203.598 154.719 203.189 155.173 202.9 155.736C202.615 156.293 202.473 156.898 202.473 157.551V159.043C202.473 159.918 202.627 160.662 202.934 161.276C203.246 161.889 203.681 162.358 204.238 162.682C204.794 163 205.445 163.159 206.189 163.159C206.672 163.159 207.113 163.091 207.51 162.955C207.908 162.812 208.252 162.602 208.542 162.324C208.831 162.045 209.053 161.702 209.206 161.293L211.618 161.727C211.425 162.437 211.078 163.06 210.578 163.594C210.084 164.122 209.462 164.534 208.712 164.83C207.968 165.119 207.118 165.264 206.164 165.264ZM217.156 157.227V165H214.608V151.909H217.054V154.04H217.216C217.517 153.347 217.988 152.79 218.63 152.369C219.278 151.949 220.093 151.739 221.076 151.739C221.968 151.739 222.75 151.926 223.42 152.301C224.091 152.67 224.61 153.222 224.98 153.955C225.349 154.687 225.534 155.594 225.534 156.673V165H222.985V156.98C222.985 156.031 222.738 155.29 222.244 154.756C221.75 154.216 221.071 153.946 220.207 153.946C219.616 153.946 219.091 154.074 218.63 154.33C218.176 154.585 217.815 154.96 217.548 155.455C217.287 155.943 217.156 156.534 217.156 157.227ZM235.062 151.909V153.955H227.912V151.909H235.062ZM229.829 148.773H232.377V161.156C232.377 161.651 232.451 162.023 232.599 162.273C232.747 162.517 232.937 162.685 233.17 162.776C233.409 162.861 233.667 162.903 233.946 162.903C234.15 162.903 234.329 162.889 234.483 162.861C234.636 162.832 234.755 162.81 234.841 162.793L235.301 164.898C235.153 164.955 234.943 165.011 234.67 165.068C234.397 165.131 234.056 165.165 233.647 165.17C232.977 165.182 232.352 165.062 231.772 164.812C231.193 164.562 230.724 164.176 230.366 163.653C230.008 163.131 229.829 162.474 229.829 161.685V148.773Z" fill="#1D2939"/>
</g>
<rect x="0.5" y="0.5" width="263" height="245" rx="9.5" stroke="#35B6B4"/>
<defs>
<linearGradient id="paint0_linear_52_1565" x1="127.95" y1="33" x2="127.68" y2="87" gradientUnits="userSpaceOnUse">
<stop stop-color="#41DDB2"/>
<stop offset="0.5" stop-color="#1FD3E6"/>
<stop offset="0.741" stop-color="#17CEF5"/>
</linearGradient>
<clipPath id="clip0_52_1565">
<rect width="264" height="246" rx="10" fill="white"/>
</clipPath>
<clipPath id="clip1_52_1565">
<rect width="54" height="54" fill="white" transform="translate(105 33)"/>
</clipPath>
</defs>
</svg>
