<svg width="264" height="246" viewBox="0 0 264 246" fill="none" xmlns="http://www.w3.org/2000/svg">
<g clip-path="url(#clip0_52_1505)">
<rect width="264" height="246" rx="10" fill="#EAFFFC"/>
<g clip-path="url(#clip1_52_1505)">
<g clip-path="url(#clip2_52_1505)">
<path fill-rule="evenodd" clip-rule="evenodd" d="M109.941 69.047L109.648 68.9241L114.519 57.1677C115.571 54.6341 118.004 53 120.716 53H129.014V56.697H120.716C119.507 56.697 118.376 57.4585 117.906 58.5947L114.017 67.982C114.067 67.9812 114.117 67.9808 114.166 67.9808H139.465V71.7654H114.166C111.133 71.7654 108.667 74.3112 108.667 77.4423V79.9654C108.667 81.7038 110.038 83.1192 111.722 83.1192H153.276C154.96 83.1192 156.331 81.7038 156.331 79.9654V77.4423C156.331 76.0218 155.818 74.6694 154.889 73.6299L157.58 71.0589C159.14 72.7973 160 75.0656 160 77.4398V79.8077V79.9629V88.4465C160 91.5096 157.568 94 154.577 94C151.587 94 149.155 91.5096 149.155 88.4465V86.9038H115.845V88.4465C115.845 91.5096 113.413 94 110.423 94C107.432 94 105 91.5096 105 88.4465V79.9654V79.8077V77.4423C105 73.7966 107.007 70.6264 109.941 69.047ZM152.77 88.4465V86.9038H153.276C154.397 86.9038 155.455 86.6194 156.385 86.1166V88.4465C156.385 89.4683 155.575 90.2977 154.577 90.2977C153.58 90.2977 152.77 89.4683 152.77 88.4465ZM112.23 86.9038H111.722C110.602 86.9038 109.545 86.6199 108.615 86.1179V88.4465C108.615 89.4683 109.425 90.2977 110.423 90.2977C111.42 90.2977 112.23 89.4683 112.23 88.4465V86.9038ZM114.296 75.0769H121.268V79.0192H114.296V75.0769ZM149.93 75.0769H142.958V79.0192H149.93V75.0769Z" fill="#35B6B4"/>
<path fill-rule="evenodd" clip-rule="evenodd" d="M148.777 68.8535C149.01 68.9503 149.256 69 149.501 69C149.747 69 149.992 68.9503 150.223 68.8535C150.826 68.6003 165 62.4653 165 49.8477V39.472C165 38.6751 164.492 37.965 163.735 37.7092L150.094 33.0987C149.71 32.9671 149.29 32.9671 148.906 33.0987L135.265 37.7092C134.508 37.965 134 38.6726 134 39.472V49.8477C134 62.4653 148.172 68.5978 148.777 68.8535ZM137.72 49.8477V40.8103L149.501 36.8279L161.282 40.8103V49.8477C161.282 58.5449 152.165 63.7464 149.499 65.0821C146.83 63.7538 137.72 58.5772 137.72 49.8477Z" fill="url(#paint0_linear_52_1505)"/>
<path d="M148.253 57C148.219 57 148.185 57 148.151 56.9975C147.636 56.9674 147.158 56.7113 146.836 56.2946L142 50.0184L144.832 47.6636L148.403 52.2979L155.435 45L158 47.6636L149.537 56.4502C149.194 56.8017 148.732 57 148.253 57Z" fill="url(#paint1_linear_52_1505)"/>
</g>
</g>
<path d="M106.822 114.455V129H105.06V114.455H106.822ZM118.222 129L114.899 118.091H116.66L119.018 126.443H119.132L121.461 118.091H123.251L125.552 126.415H125.666L128.024 118.091H129.785L126.461 129H124.813L122.427 120.619H122.257L119.87 129H118.222ZM135.211 129.256C134.52 129.256 133.892 129.125 133.329 128.865C132.766 128.6 132.318 128.219 131.987 127.722C131.655 127.22 131.49 126.614 131.49 125.903C131.49 125.278 131.613 124.772 131.859 124.384C132.105 123.991 132.434 123.683 132.846 123.46C133.258 123.238 133.713 123.072 134.21 122.963C134.712 122.849 135.216 122.759 135.722 122.693C136.385 122.608 136.923 122.544 137.335 122.501C137.751 122.454 138.054 122.376 138.244 122.267C138.438 122.158 138.535 121.969 138.535 121.699V121.642C138.535 120.941 138.343 120.397 137.96 120.009C137.581 119.62 137.006 119.426 136.234 119.426C135.434 119.426 134.806 119.601 134.352 119.952C133.897 120.302 133.578 120.676 133.393 121.074L131.802 120.506C132.086 119.843 132.465 119.327 132.938 118.957C133.417 118.583 133.937 118.323 134.501 118.176C135.069 118.025 135.628 117.949 136.177 117.949C136.527 117.949 136.93 117.991 137.384 118.077C137.844 118.157 138.286 118.325 138.713 118.581C139.143 118.837 139.501 119.223 139.785 119.739C140.069 120.255 140.211 120.946 140.211 121.812V129H138.535V127.523H138.45C138.336 127.759 138.147 128.013 137.882 128.283C137.616 128.553 137.264 128.782 136.823 128.972C136.383 129.161 135.846 129.256 135.211 129.256ZM135.467 127.75C136.13 127.75 136.688 127.62 137.143 127.359C137.602 127.099 137.948 126.763 138.18 126.351C138.417 125.939 138.535 125.506 138.535 125.051V123.517C138.464 123.602 138.308 123.68 138.066 123.751C137.829 123.818 137.555 123.877 137.242 123.929C136.935 123.976 136.634 124.019 136.34 124.057C136.052 124.09 135.817 124.118 135.637 124.142C135.202 124.199 134.794 124.291 134.416 124.419C134.042 124.542 133.739 124.729 133.507 124.98C133.279 125.226 133.166 125.562 133.166 125.989C133.166 126.571 133.381 127.011 133.812 127.31C134.248 127.603 134.799 127.75 135.467 127.75ZM144.947 122.438V129H143.27V118.091H144.89V119.795H145.032C145.287 119.241 145.676 118.796 146.197 118.46C146.717 118.119 147.39 117.949 148.214 117.949C148.952 117.949 149.599 118.1 150.153 118.403C150.706 118.702 151.137 119.156 151.445 119.767C151.753 120.373 151.907 121.14 151.907 122.068V129H150.231V122.182C150.231 121.325 150.008 120.657 149.563 120.179C149.118 119.696 148.507 119.455 147.731 119.455C147.196 119.455 146.717 119.571 146.296 119.803C145.879 120.035 145.55 120.373 145.309 120.818C145.067 121.263 144.947 121.803 144.947 122.438ZM159.714 118.091V119.511H154.061V118.091H159.714ZM155.708 115.477H157.384V125.875C157.384 126.348 157.453 126.704 157.59 126.94C157.732 127.172 157.912 127.329 158.13 127.409C158.353 127.485 158.587 127.523 158.833 127.523C159.018 127.523 159.169 127.513 159.288 127.494C159.406 127.471 159.501 127.452 159.572 127.438L159.913 128.943C159.799 128.986 159.641 129.028 159.437 129.071C159.233 129.118 158.975 129.142 158.663 129.142C158.189 129.142 157.725 129.04 157.271 128.837C156.821 128.633 156.447 128.323 156.149 127.906C155.855 127.49 155.708 126.964 155.708 126.33V115.477Z" fill="#808080"/>
<path d="M95.7859 153.222H93.1268C93.0245 152.653 92.8342 152.153 92.5558 151.722C92.2773 151.29 91.9364 150.923 91.533 150.622C91.1296 150.321 90.6779 150.094 90.1779 149.94C89.6836 149.787 89.158 149.71 88.6012 149.71C87.5955 149.71 86.695 149.963 85.8995 150.469C85.1097 150.974 84.4847 151.716 84.0245 152.693C83.57 153.67 83.3427 154.864 83.3427 156.273C83.3427 157.693 83.57 158.892 84.0245 159.869C84.4847 160.847 85.1126 161.585 85.908 162.085C86.7035 162.585 87.5984 162.835 88.5927 162.835C89.1438 162.835 89.6665 162.761 90.1609 162.614C90.6609 162.46 91.1126 162.236 91.516 161.94C91.9194 161.645 92.2603 161.284 92.5387 160.858C92.8228 160.426 93.0188 159.932 93.1268 159.375L95.7859 159.384C95.6438 160.241 95.3683 161.031 94.9592 161.753C94.5558 162.469 94.0359 163.088 93.3995 163.611C92.7688 164.128 92.0472 164.528 91.2347 164.812C90.4222 165.097 89.5359 165.239 88.5756 165.239C87.0643 165.239 85.7177 164.881 84.5359 164.165C83.354 163.443 82.4222 162.412 81.7404 161.071C81.0643 159.73 80.7262 158.131 80.7262 156.273C80.7262 154.409 81.0671 152.81 81.7489 151.474C82.4308 150.134 83.3626 149.105 84.5444 148.389C85.7262 147.668 87.07 147.307 88.5756 147.307C89.5018 147.307 90.3654 147.44 91.1665 147.707C91.9734 147.969 92.6978 148.355 93.3398 148.866C93.9819 149.372 94.5131 149.991 94.9336 150.724C95.354 151.452 95.6381 152.284 95.7859 153.222ZM104.247 165.264C103.02 165.264 101.949 164.983 101.034 164.42C100.119 163.858 99.4087 163.071 98.9031 162.06C98.3974 161.048 98.1445 159.866 98.1445 158.514C98.1445 157.156 98.3974 155.969 98.9031 154.952C99.4087 153.935 100.119 153.145 101.034 152.582C101.949 152.02 103.02 151.739 104.247 151.739C105.474 151.739 106.545 152.02 107.46 152.582C108.375 153.145 109.085 153.935 109.591 154.952C110.096 155.969 110.349 157.156 110.349 158.514C110.349 159.866 110.096 161.048 109.591 162.06C109.085 163.071 108.375 163.858 107.46 164.42C106.545 164.983 105.474 165.264 104.247 165.264ZM104.255 163.125C105.051 163.125 105.71 162.915 106.233 162.494C106.755 162.074 107.142 161.514 107.392 160.815C107.647 160.116 107.775 159.347 107.775 158.506C107.775 157.67 107.647 156.903 107.392 156.205C107.142 155.5 106.755 154.935 106.233 154.509C105.71 154.082 105.051 153.869 104.255 153.869C103.454 153.869 102.789 154.082 102.261 154.509C101.738 154.935 101.349 155.5 101.093 156.205C100.843 156.903 100.718 157.67 100.718 158.506C100.718 159.347 100.843 160.116 101.093 160.815C101.349 161.514 101.738 162.074 102.261 162.494C102.789 162.915 103.454 163.125 104.255 163.125ZM115.742 157.227V165H113.194V151.909H115.64V154.04H115.801C116.103 153.347 116.574 152.79 117.216 152.369C117.864 151.949 118.679 151.739 119.662 151.739C120.554 151.739 121.336 151.926 122.006 152.301C122.676 152.67 123.196 153.222 123.566 153.955C123.935 154.687 124.12 155.594 124.12 156.673V165H121.571V156.98C121.571 156.031 121.324 155.29 120.83 154.756C120.336 154.216 119.657 153.946 118.793 153.946C118.202 153.946 117.676 154.074 117.216 154.33C116.762 154.585 116.401 154.96 116.134 155.455C115.873 155.943 115.742 156.534 115.742 157.227ZM133.648 151.909V153.955H126.498V151.909H133.648ZM128.415 148.773H130.963V161.156C130.963 161.651 131.037 162.023 131.185 162.273C131.333 162.517 131.523 162.685 131.756 162.776C131.995 162.861 132.253 162.903 132.532 162.903C132.736 162.903 132.915 162.889 133.069 162.861C133.222 162.832 133.341 162.81 133.426 162.793L133.887 164.898C133.739 164.955 133.529 165.011 133.256 165.068C132.983 165.131 132.642 165.165 132.233 165.17C131.563 165.182 130.938 165.062 130.358 164.812C129.779 164.562 129.31 164.176 128.952 163.653C128.594 163.131 128.415 162.474 128.415 161.685V148.773ZM141.968 165.264C140.679 165.264 139.568 164.989 138.636 164.438C137.71 163.881 136.994 163.099 136.488 162.094C135.988 161.082 135.738 159.898 135.738 158.54C135.738 157.199 135.988 156.017 136.488 154.994C136.994 153.972 137.699 153.173 138.602 152.599C139.511 152.026 140.574 151.739 141.789 151.739C142.528 151.739 143.244 151.861 143.937 152.105C144.63 152.349 145.252 152.733 145.804 153.256C146.355 153.778 146.789 154.457 147.108 155.293C147.426 156.122 147.585 157.131 147.585 158.318V159.222H137.179V157.312H145.088C145.088 156.642 144.951 156.048 144.679 155.531C144.406 155.009 144.022 154.597 143.528 154.295C143.039 153.994 142.466 153.844 141.806 153.844C141.091 153.844 140.466 154.02 139.931 154.372C139.403 154.719 138.994 155.173 138.704 155.736C138.42 156.293 138.278 156.898 138.278 157.551V159.043C138.278 159.918 138.431 160.662 138.738 161.276C139.051 161.889 139.485 162.358 140.042 162.682C140.599 163 141.25 163.159 141.994 163.159C142.477 163.159 142.917 163.091 143.315 162.955C143.713 162.812 144.056 162.602 144.346 162.324C144.636 162.045 144.858 161.702 145.011 161.293L147.423 161.727C147.23 162.437 146.883 163.06 146.383 163.594C145.889 164.122 145.267 164.534 144.517 164.83C143.772 165.119 142.923 165.264 141.968 165.264ZM152.961 157.227V165H150.412V151.909H152.858V154.04H153.02C153.321 153.347 153.793 152.79 154.435 152.369C155.083 151.949 155.898 151.739 156.881 151.739C157.773 151.739 158.554 151.926 159.225 152.301C159.895 152.67 160.415 153.222 160.784 153.955C161.154 154.687 161.338 155.594 161.338 156.673V165H158.79V156.98C158.79 156.031 158.543 155.29 158.049 154.756C157.554 154.216 156.875 153.946 156.012 153.946C155.421 153.946 154.895 154.074 154.435 154.33C153.98 154.585 153.62 154.96 153.353 155.455C153.091 155.943 152.961 156.534 152.961 157.227ZM170.867 151.909V153.955H163.716V151.909H170.867ZM165.634 148.773H168.182V161.156C168.182 161.651 168.256 162.023 168.404 162.273C168.551 162.517 168.742 162.685 168.975 162.776C169.213 162.861 169.472 162.903 169.75 162.903C169.955 162.903 170.134 162.889 170.287 162.861C170.441 162.832 170.56 162.81 170.645 162.793L171.105 164.898C170.958 164.955 170.748 165.011 170.475 165.068C170.202 165.131 169.861 165.165 169.452 165.17C168.782 165.182 168.157 165.062 167.577 164.812C166.998 164.562 166.529 164.176 166.171 163.653C165.813 163.131 165.634 162.474 165.634 161.685V148.773ZM183.284 155.105L180.975 155.514C180.878 155.219 180.725 154.937 180.515 154.67C180.31 154.403 180.032 154.185 179.679 154.014C179.327 153.844 178.887 153.759 178.358 153.759C177.637 153.759 177.034 153.92 176.551 154.244C176.069 154.562 175.827 154.974 175.827 155.48C175.827 155.918 175.989 156.27 176.313 156.537C176.637 156.804 177.159 157.023 177.881 157.193L179.961 157.67C181.165 157.949 182.063 158.378 182.654 158.957C183.245 159.537 183.54 160.29 183.54 161.216C183.54 162 183.313 162.699 182.858 163.312C182.409 163.92 181.782 164.398 180.975 164.744C180.174 165.091 179.245 165.264 178.188 165.264C176.722 165.264 175.526 164.952 174.6 164.327C173.674 163.696 173.105 162.801 172.895 161.642L175.358 161.267C175.512 161.909 175.827 162.395 176.304 162.724C176.782 163.048 177.404 163.21 178.171 163.21C179.006 163.21 179.674 163.037 180.174 162.69C180.674 162.338 180.924 161.909 180.924 161.403C180.924 160.994 180.77 160.651 180.463 160.372C180.162 160.094 179.699 159.884 179.074 159.741L176.858 159.256C175.637 158.977 174.733 158.534 174.148 157.926C173.569 157.318 173.279 156.548 173.279 155.616C173.279 154.844 173.495 154.168 173.926 153.588C174.358 153.009 174.955 152.557 175.716 152.233C176.478 151.903 177.35 151.739 178.333 151.739C179.748 151.739 180.861 152.045 181.674 152.659C182.486 153.267 183.023 154.082 183.284 155.105Z" fill="#1D2939"/>
<rect x="206" y="191" width="85" height="85" rx="42.5" fill="#41DDB2"/>
<path d="M230.156 220.406L236.719 226.969L249.844 212.906" stroke="white" stroke-width="3" stroke-linecap="round" stroke-linejoin="round"/>
<path d="M22.646 221V209.48L23.906 210.74H20.126V208.4H25.562V221H22.646ZM32.0348 221.216C31.1588 221.216 30.2888 221.102 29.4248 220.874C28.5728 220.634 27.8408 220.298 27.2288 219.866L28.3808 217.634C28.8608 217.982 29.4128 218.258 30.0368 218.462C30.6728 218.666 31.3148 218.768 31.9628 218.768C32.6948 218.768 33.2708 218.624 33.6908 218.336C34.1108 218.048 34.3208 217.646 34.3208 217.13C34.3208 216.806 34.2368 216.518 34.0688 216.266C33.9008 216.014 33.6008 215.822 33.1688 215.69C32.7488 215.558 32.1548 215.492 31.3868 215.492H28.1648L28.8128 208.4H36.4988V210.74H29.8568L31.3688 209.408L30.9188 214.466L29.4068 213.134H32.0708C33.3188 213.134 34.3208 213.308 35.0768 213.656C35.8448 213.992 36.4028 214.454 36.7508 215.042C37.0988 215.63 37.2728 216.296 37.2728 217.04C37.2728 217.784 37.0868 218.474 36.7148 219.11C36.3428 219.734 35.7668 220.244 34.9868 220.64C34.2188 221.024 33.2348 221.216 32.0348 221.216ZM43.8559 221.216C42.8239 221.216 41.8999 220.964 41.0839 220.46C40.2679 219.944 39.6259 219.2 39.1579 218.228C38.6899 217.256 38.4559 216.08 38.4559 214.7C38.4559 213.32 38.6899 212.144 39.1579 211.172C39.6259 210.2 40.2679 209.462 41.0839 208.958C41.8999 208.442 42.8239 208.184 43.8559 208.184C44.8999 208.184 45.8239 208.442 46.6279 208.958C47.4439 209.462 48.0859 210.2 48.5539 211.172C49.0219 212.144 49.2559 213.32 49.2559 214.7C49.2559 216.08 49.0219 217.256 48.5539 218.228C48.0859 219.2 47.4439 219.944 46.6279 220.46C45.8239 220.964 44.8999 221.216 43.8559 221.216ZM43.8559 218.75C44.3479 218.75 44.7739 218.612 45.1339 218.336C45.5059 218.06 45.7939 217.622 45.9979 217.022C46.2139 216.422 46.3219 215.648 46.3219 214.7C46.3219 213.752 46.2139 212.978 45.9979 212.378C45.7939 211.778 45.5059 211.34 45.1339 211.064C44.7739 210.788 44.3479 210.65 43.8559 210.65C43.3759 210.65 42.9499 210.788 42.5779 211.064C42.2179 211.34 41.9299 211.778 41.7139 212.378C41.5099 212.978 41.4079 213.752 41.4079 214.7C41.4079 215.648 41.5099 216.422 41.7139 217.022C41.9299 217.622 42.2179 218.06 42.5779 218.336C42.9499 218.612 43.3759 218.75 43.8559 218.75ZM56.0727 221.216C55.0407 221.216 54.1167 220.964 53.3007 220.46C52.4847 219.944 51.8427 219.2 51.3747 218.228C50.9067 217.256 50.6727 216.08 50.6727 214.7C50.6727 213.32 50.9067 212.144 51.3747 211.172C51.8427 210.2 52.4847 209.462 53.3007 208.958C54.1167 208.442 55.0407 208.184 56.0727 208.184C57.1167 208.184 58.0407 208.442 58.8447 208.958C59.6607 209.462 60.3027 210.2 60.7707 211.172C61.2387 212.144 61.4727 213.32 61.4727 214.7C61.4727 216.08 61.2387 217.256 60.7707 218.228C60.3027 219.2 59.6607 219.944 58.8447 220.46C58.0407 220.964 57.1167 221.216 56.0727 221.216ZM56.0727 218.75C56.5647 218.75 56.9907 218.612 57.3507 218.336C57.7227 218.06 58.0107 217.622 58.2147 217.022C58.4307 216.422 58.5387 215.648 58.5387 214.7C58.5387 213.752 58.4307 212.978 58.2147 212.378C58.0107 211.778 57.7227 211.34 57.3507 211.064C56.9907 210.788 56.5647 210.65 56.0727 210.65C55.5927 210.65 55.1667 210.788 54.7947 211.064C54.4347 211.34 54.1467 211.778 53.9307 212.378C53.7267 212.978 53.6247 213.752 53.6247 214.7C53.6247 215.648 53.7267 216.422 53.9307 217.022C54.1467 217.622 54.4347 218.06 54.7947 218.336C55.1667 218.612 55.5927 218.75 56.0727 218.75ZM68.2895 221.216C67.2575 221.216 66.3335 220.964 65.5175 220.46C64.7015 219.944 64.0595 219.2 63.5915 218.228C63.1235 217.256 62.8895 216.08 62.8895 214.7C62.8895 213.32 63.1235 212.144 63.5915 211.172C64.0595 210.2 64.7015 209.462 65.5175 208.958C66.3335 208.442 67.2575 208.184 68.2895 208.184C69.3335 208.184 70.2575 208.442 71.0615 208.958C71.8775 209.462 72.5195 210.2 72.9875 211.172C73.4555 212.144 73.6895 213.32 73.6895 214.7C73.6895 216.08 73.4555 217.256 72.9875 218.228C72.5195 219.2 71.8775 219.944 71.0615 220.46C70.2575 220.964 69.3335 221.216 68.2895 221.216ZM68.2895 218.75C68.7815 218.75 69.2075 218.612 69.5675 218.336C69.9395 218.06 70.2275 217.622 70.4315 217.022C70.6475 216.422 70.7555 215.648 70.7555 214.7C70.7555 213.752 70.6475 212.978 70.4315 212.378C70.2275 211.778 69.9395 211.34 69.5675 211.064C69.2075 210.788 68.7815 210.65 68.2895 210.65C67.8095 210.65 67.3835 210.788 67.0115 211.064C66.6515 211.34 66.3635 211.778 66.1475 212.378C65.9435 212.978 65.8415 213.752 65.8415 214.7C65.8415 215.648 65.9435 216.422 66.1475 217.022C66.3635 217.622 66.6515 218.06 67.0115 218.336C67.3835 218.612 67.8095 218.75 68.2895 218.75ZM80.186 221V219.11L87.98 209.714L88.34 210.776H80.33V208.4H90.932V210.29L83.156 219.686L82.796 218.624H91.202V221H80.186ZM93.0721 221V208.4H95.4841L100.848 217.292H99.5701L104.844 208.4H107.238L107.274 221H104.538L104.52 212.594H105.024L100.812 219.668H99.4981L95.1961 212.594H95.8081V221H93.0721ZM113.235 221L109.113 208.4H112.137L115.719 219.56H114.207L117.951 208.4H120.651L124.251 219.56H122.793L126.465 208.4H129.255L125.133 221H122.001L118.815 211.208H119.643L116.367 221H113.235Z" fill="#0C7BC4"/>
</g>
<rect x="0.5" y="0.5" width="263" height="245" rx="9.5" stroke="#35B6B4"/>
<defs>
<linearGradient id="paint0_linear_52_1505" x1="147.175" y1="33" x2="146.966" y2="68.9997" gradientUnits="userSpaceOnUse">
<stop stop-color="#41DDB2"/>
<stop offset="0.5" stop-color="#1FD3E6"/>
<stop offset="0.741" stop-color="#17CEF5"/>
</linearGradient>
<linearGradient id="paint1_linear_52_1505" x1="148.8" y1="45" x2="148.755" y2="57.0001" gradientUnits="userSpaceOnUse">
<stop stop-color="#41DDB2"/>
<stop offset="0.5" stop-color="#1FD3E6"/>
<stop offset="0.741" stop-color="#17CEF5"/>
</linearGradient>
<clipPath id="clip0_52_1505">
<rect width="264" height="246" rx="10" fill="white"/>
</clipPath>
<clipPath id="clip1_52_1505">
<rect width="54" height="54" fill="white" transform="translate(105 33)"/>
</clipPath>
<clipPath id="clip2_52_1505">
<rect width="60" height="61" fill="white" transform="translate(105 33)"/>
</clipPath>
</defs>
</svg>
