<svg width="264" height="246" viewBox="0 0 264 246" fill="none" xmlns="http://www.w3.org/2000/svg">
<g clip-path="url(#clip0_52_1535)">
<rect width="264" height="246" rx="10" fill="#EAFFFC"/>
<rect x="202" y="187" width="85" height="85" rx="42.5" fill="#283671"/>
<path d="M228 221C228 220.769 228.072 220.581 228.217 220.437C228.361 220.292 228.549 220.22 228.78 220.22H247.933L242.82 215.107C242.647 214.933 242.56 214.731 242.56 214.5C242.56 214.269 242.647 214.081 242.82 213.937C242.993 213.792 243.196 213.72 243.427 213.72C243.658 213.72 243.86 213.778 244.033 213.893L250.533 220.393C250.649 220.567 250.707 220.769 250.707 221C250.707 221.231 250.649 221.433 250.533 221.607L244.033 228.107C243.86 228.222 243.658 228.28 243.427 228.28C243.196 228.28 242.993 228.208 242.82 228.063C242.647 227.919 242.56 227.731 242.56 227.5C242.56 227.269 242.647 227.067 242.82 226.893L247.933 221.78H228.78C228.549 221.78 228.361 221.708 228.217 221.563C228.072 221.419 228 221.231 228 221Z" fill="white"/>
<g clip-path="url(#clip1_52_1535)">
<g clip-path="url(#clip2_52_1535)">
<path fill-rule="evenodd" clip-rule="evenodd" d="M153.27 44.1996L157.869 75.2038C158.383 78.6679 157.366 82.1755 155.078 84.8273C152.79 87.4791 149.468 89 145.965 89H142.472C141.264 89 140.284 88.0207 140.284 86.8125C140.284 85.6043 141.264 84.625 142.472 84.625H145.965C148.194 84.625 150.308 83.6571 151.764 81.9697C153.22 80.2823 153.868 78.05 153.541 75.8457L148.941 44.8414C148.31 40.5848 144.588 37.375 140.284 37.375H119.716C115.412 37.375 111.69 40.5848 111.059 44.8414L106.459 75.8456C106.132 78.05 106.78 80.2823 108.236 81.9697C109.692 83.6571 111.806 84.625 114.035 84.625H117.747C118.955 84.625 119.935 85.6043 119.935 86.8125C119.935 88.0207 118.955 89 117.747 89H114.035C110.532 89 107.21 87.4791 104.922 84.8272C102.634 82.1755 101.617 78.6679 102.131 75.2037L106.73 44.1997C107.191 41.0875 108.758 38.2418 111.141 36.1867C113.524 34.1318 116.569 33 119.716 33H140.284C143.431 33 146.476 34.1318 148.859 36.1866C151.242 38.2417 152.808 41.0874 153.27 44.1996ZM138.979 80.2242C139.228 80.316 139.484 80.3597 139.736 80.3597C140.535 80.3597 141.297 79.9203 141.682 79.1741C142.188 78.1921 141.883 76.9868 140.97 76.3645L132.298 70.4533V65.4844C132.298 64.2762 131.318 63.2969 130.109 63.2969C128.901 63.2969 127.921 64.2762 127.921 65.4844V70.4533L119.249 76.3645C118.336 76.9868 118.031 78.192 118.537 79.1741C119.043 80.156 120.203 80.6063 121.239 80.2241L127.921 77.7592V84.625H126.499C125.291 84.625 124.311 85.6043 124.311 86.8125C124.311 88.0207 125.291 89 126.499 89H133.72C134.928 89 135.908 88.0207 135.908 86.8125C135.908 85.6043 134.928 84.625 133.72 84.625H132.298V77.7592L138.979 80.2242Z" fill="#35B6B4"/>
<path fill-rule="evenodd" clip-rule="evenodd" d="M127.104 45.4139C127.104 43.8904 128.4 42.6553 130 42.6553C131.6 42.6553 132.897 43.8904 132.897 45.4139C132.897 46.9374 131.6 48.1725 130 48.1725C128.4 48.1725 127.104 46.9374 127.104 45.4139ZM130 58.1035C131.6 58.1035 132.897 56.8685 132.897 55.3449C132.897 53.8214 131.6 52.5863 130 52.5863C128.4 52.5863 127.104 53.8214 127.104 55.3449C127.104 56.8685 128.4 58.1035 130 58.1035Z" fill="url(#paint0_linear_52_1535)"/>
</g>
</g>
<path d="M103.822 114.455V129H102.06V114.455H103.822ZM115.222 129L111.899 118.091H113.66L116.018 126.443H116.132L118.461 118.091H120.251L122.552 126.415H122.666L125.024 118.091H126.785L123.461 129H121.813L119.427 120.619H119.257L116.87 129H115.222ZM132.211 129.256C131.52 129.256 130.892 129.125 130.329 128.865C129.766 128.6 129.318 128.219 128.987 127.722C128.655 127.22 128.49 126.614 128.49 125.903C128.49 125.278 128.613 124.772 128.859 124.384C129.105 123.991 129.434 123.683 129.846 123.46C130.258 123.238 130.713 123.072 131.21 122.963C131.712 122.849 132.216 122.759 132.722 122.693C133.385 122.608 133.923 122.544 134.335 122.501C134.751 122.454 135.054 122.376 135.244 122.267C135.438 122.158 135.535 121.969 135.535 121.699V121.642C135.535 120.941 135.343 120.397 134.96 120.009C134.581 119.62 134.006 119.426 133.234 119.426C132.434 119.426 131.806 119.601 131.352 119.952C130.897 120.302 130.578 120.676 130.393 121.074L128.802 120.506C129.086 119.843 129.465 119.327 129.938 118.957C130.417 118.583 130.937 118.323 131.501 118.176C132.069 118.025 132.628 117.949 133.177 117.949C133.527 117.949 133.93 117.991 134.384 118.077C134.844 118.157 135.286 118.325 135.713 118.581C136.143 118.837 136.501 119.223 136.785 119.739C137.069 120.255 137.211 120.946 137.211 121.812V129H135.535V127.523H135.45C135.336 127.759 135.147 128.013 134.882 128.283C134.616 128.553 134.264 128.782 133.823 128.972C133.383 129.161 132.846 129.256 132.211 129.256ZM132.467 127.75C133.13 127.75 133.688 127.62 134.143 127.359C134.602 127.099 134.948 126.763 135.18 126.351C135.417 125.939 135.535 125.506 135.535 125.051V123.517C135.464 123.602 135.308 123.68 135.066 123.751C134.829 123.818 134.555 123.877 134.242 123.929C133.935 123.976 133.634 124.019 133.34 124.057C133.052 124.09 132.817 124.118 132.637 124.142C132.202 124.199 131.794 124.291 131.416 124.419C131.042 124.542 130.739 124.729 130.507 124.98C130.279 125.226 130.166 125.562 130.166 125.989C130.166 126.571 130.381 127.011 130.812 127.31C131.248 127.603 131.799 127.75 132.467 127.75ZM141.947 122.438V129H140.27V118.091H141.89V119.795H142.032C142.287 119.241 142.676 118.796 143.197 118.46C143.717 118.119 144.39 117.949 145.214 117.949C145.952 117.949 146.599 118.1 147.153 118.403C147.706 118.702 148.137 119.156 148.445 119.767C148.753 120.373 148.907 121.14 148.907 122.068V129H147.231V122.182C147.231 121.325 147.008 120.657 146.563 120.179C146.118 119.696 145.507 119.455 144.731 119.455C144.196 119.455 143.717 119.571 143.296 119.803C142.879 120.035 142.55 120.373 142.309 120.818C142.067 121.263 141.947 121.803 141.947 122.438ZM156.714 118.091V119.511H151.061V118.091H156.714ZM152.708 115.477H154.384V125.875C154.384 126.348 154.453 126.704 154.59 126.94C154.732 127.172 154.912 127.329 155.13 127.409C155.353 127.485 155.587 127.523 155.833 127.523C156.018 127.523 156.169 127.513 156.288 127.494C156.406 127.471 156.501 127.452 156.572 127.438L156.913 128.943C156.799 128.986 156.641 129.028 156.437 129.071C156.233 129.118 155.975 129.142 155.663 129.142C155.189 129.142 154.725 129.04 154.271 128.837C153.821 128.633 153.447 128.323 153.149 127.906C152.855 127.49 152.708 126.964 152.708 126.33V115.477Z" fill="#808080"/>
<path d="M12.359 165V147.545H23.3022V149.812H14.9925V155.131H22.7312V157.389H14.9925V162.733H23.4045V165H12.359ZM29.1637 147.545V165H26.6154V147.545H29.1637ZM38.234 165.264C36.9442 165.264 35.8335 164.989 34.9016 164.438C33.9755 163.881 33.2596 163.099 32.7539 162.094C32.2539 161.082 32.0039 159.898 32.0039 158.54C32.0039 157.199 32.2539 156.017 32.7539 154.994C33.2596 153.972 33.9641 153.173 34.8675 152.599C35.7766 152.026 36.8391 151.739 38.055 151.739C38.7937 151.739 39.5096 151.861 40.2028 152.105C40.896 152.349 41.5181 152.733 42.0692 153.256C42.6204 153.778 43.055 154.457 43.3732 155.293C43.6914 156.122 43.8505 157.131 43.8505 158.318V159.222H33.4442V157.312H41.3533C41.3533 156.642 41.217 156.048 40.9442 155.531C40.6715 155.009 40.288 154.597 39.7937 154.295C39.305 153.994 38.7312 153.844 38.0721 153.844C37.3562 153.844 36.7312 154.02 36.1971 154.372C35.6687 154.719 35.2596 155.173 34.9698 155.736C34.6857 156.293 34.5437 156.898 34.5437 157.551V159.043C34.5437 159.918 34.6971 160.662 35.0039 161.276C35.3164 161.889 35.7511 162.358 36.3079 162.682C36.8647 163 37.5153 163.159 38.2596 163.159C38.7425 163.159 39.1829 163.091 39.5806 162.955C39.9783 162.812 40.3221 162.602 40.6119 162.324C40.9016 162.045 41.1232 161.702 41.2766 161.293L43.6886 161.727C43.4954 162.437 43.1488 163.06 42.6488 163.594C42.1545 164.122 41.5323 164.534 40.7823 164.83C40.038 165.119 39.1886 165.264 38.234 165.264ZM52.1921 165.264C50.9251 165.264 49.8342 164.977 48.9194 164.403C48.0103 163.824 47.3114 163.026 46.8228 162.009C46.3342 160.991 46.0898 159.827 46.0898 158.514C46.0898 157.185 46.3398 156.011 46.8398 154.994C47.3398 153.972 48.0444 153.173 48.9535 152.599C49.8626 152.026 50.9336 151.739 52.1665 151.739C53.1609 151.739 54.0472 151.923 54.8256 152.293C55.604 152.656 56.2319 153.168 56.7092 153.827C57.1921 154.486 57.479 155.256 57.57 156.136H55.0898C54.9535 155.523 54.641 154.994 54.1523 154.551C53.6694 154.108 53.0217 153.886 52.2092 153.886C51.4989 153.886 50.8768 154.074 50.3427 154.449C49.8143 154.818 49.4023 155.347 49.1069 156.034C48.8114 156.716 48.6637 157.523 48.6637 158.455C48.6637 159.409 48.8086 160.233 49.0984 160.926C49.3881 161.619 49.7972 162.156 50.3256 162.537C50.8597 162.918 51.4876 163.108 52.2092 163.108C52.6921 163.108 53.1296 163.02 53.5217 162.844C53.9194 162.662 54.2518 162.403 54.5188 162.068C54.7915 161.733 54.9819 161.33 55.0898 160.858H57.57C57.479 161.705 57.2035 162.46 56.7433 163.125C56.283 163.79 55.6665 164.312 54.8938 164.693C54.1268 165.074 53.2262 165.264 52.1921 165.264ZM66.4059 151.909V153.955H59.2553V151.909H66.4059ZM61.1729 148.773H63.7212V161.156C63.7212 161.651 63.7951 162.023 63.9428 162.273C64.0906 162.517 64.2809 162.685 64.5138 162.776C64.7525 162.861 65.011 162.903 65.2894 162.903C65.494 162.903 65.6729 162.889 65.8263 162.861C65.9798 162.832 66.0991 162.81 66.1843 162.793L66.6445 164.898C66.4968 164.955 66.2866 165.011 66.0138 165.068C65.7411 165.131 65.4002 165.165 64.9911 165.17C64.3207 165.182 63.6957 165.062 63.1161 164.812C62.5366 164.562 62.0678 164.176 61.7099 163.653C61.3519 163.131 61.1729 162.474 61.1729 161.685V148.773ZM69.2248 165V151.909H71.6879V153.989H71.8242C72.0629 153.284 72.4833 152.73 73.0856 152.327C73.6935 151.918 74.381 151.713 75.1481 151.713C75.3072 151.713 75.4947 151.719 75.7106 151.73C75.9322 151.741 76.1055 151.756 76.2305 151.773V154.21C76.1282 154.182 75.9464 154.151 75.685 154.116C75.4237 154.077 75.1623 154.057 74.9009 154.057C74.2987 154.057 73.7617 154.185 73.2901 154.44C72.8242 154.69 72.4549 155.04 72.1822 155.489C71.9094 155.932 71.7731 156.437 71.7731 157.006V165H69.2248ZM83.4812 165.264C82.2539 165.264 81.1829 164.983 80.2681 164.42C79.3533 163.858 78.6431 163.071 78.1374 162.06C77.6317 161.048 77.3789 159.866 77.3789 158.514C77.3789 157.156 77.6317 155.969 78.1374 154.952C78.6431 153.935 79.3533 153.145 80.2681 152.582C81.1829 152.02 82.2539 151.739 83.4812 151.739C84.7085 151.739 85.7795 152.02 86.6942 152.582C87.609 153.145 88.3192 153.935 88.8249 154.952C89.3306 155.969 89.5835 157.156 89.5835 158.514C89.5835 159.866 89.3306 161.048 88.8249 162.06C88.3192 163.071 87.609 163.858 86.6942 164.42C85.7795 164.983 84.7085 165.264 83.4812 165.264ZM83.4897 163.125C84.2852 163.125 84.9442 162.915 85.467 162.494C85.9897 162.074 86.3761 161.514 86.6261 160.815C86.8817 160.116 87.0096 159.347 87.0096 158.506C87.0096 157.67 86.8817 156.903 86.6261 156.205C86.3761 155.5 85.9897 154.935 85.467 154.509C84.9442 154.082 84.2852 153.869 83.4897 153.869C82.6886 153.869 82.0238 154.082 81.4954 154.509C80.9727 154.935 80.5835 155.5 80.3278 156.205C80.0778 156.903 79.9528 157.67 79.9528 158.506C79.9528 159.347 80.0778 160.116 80.3278 160.815C80.5835 161.514 80.9727 162.074 81.4954 162.494C82.0238 162.915 82.6886 163.125 83.4897 163.125ZM94.9762 157.227V165H92.4279V151.909H94.8739V154.04H95.0359C95.337 153.347 95.8086 152.79 96.4506 152.369C97.0984 151.949 97.9137 151.739 98.8967 151.739C99.7887 151.739 100.57 151.926 101.24 152.301C101.911 152.67 102.431 153.222 102.8 153.955C103.169 154.687 103.354 155.594 103.354 156.673V165H100.806V156.98C100.806 156.031 100.559 155.29 100.064 154.756C99.57 154.216 98.891 153.946 98.0273 153.946C97.4364 153.946 96.9109 154.074 96.4506 154.33C95.9961 154.585 95.6353 154.96 95.3683 155.455C95.1069 155.943 94.9762 156.534 94.9762 157.227ZM106.772 165V151.909H109.32V165H106.772ZM108.059 149.889C107.615 149.889 107.235 149.741 106.917 149.446C106.604 149.145 106.448 148.787 106.448 148.372C106.448 147.952 106.604 147.594 106.917 147.298C107.235 146.997 107.615 146.847 108.059 146.847C108.502 146.847 108.88 146.997 109.192 147.298C109.51 147.594 109.669 147.952 109.669 148.372C109.669 148.787 109.51 149.145 109.192 149.446C108.88 149.741 108.502 149.889 108.059 149.889ZM118.262 165.264C116.995 165.264 115.904 164.977 114.99 164.403C114.081 163.824 113.382 163.026 112.893 162.009C112.404 160.991 112.16 159.827 112.16 158.514C112.16 157.185 112.41 156.011 112.91 154.994C113.41 153.972 114.115 153.173 115.024 152.599C115.933 152.026 117.004 151.739 118.237 151.739C119.231 151.739 120.118 151.923 120.896 152.293C121.674 152.656 122.302 153.168 122.779 153.827C123.262 154.486 123.549 155.256 123.64 156.136H121.16C121.024 155.523 120.711 154.994 120.223 154.551C119.74 154.108 119.092 153.886 118.279 153.886C117.569 153.886 116.947 154.074 116.413 154.449C115.885 154.818 115.473 155.347 115.177 156.034C114.882 156.716 114.734 157.523 114.734 158.455C114.734 159.409 114.879 160.233 115.169 160.926C115.458 161.619 115.868 162.156 116.396 162.537C116.93 162.918 117.558 163.108 118.279 163.108C118.762 163.108 119.2 163.02 119.592 162.844C119.99 162.662 120.322 162.403 120.589 162.068C120.862 161.733 121.052 161.33 121.16 160.858H123.64C123.549 161.705 123.274 162.46 122.814 163.125C122.353 163.79 121.737 164.312 120.964 164.693C120.197 165.074 119.297 165.264 118.262 165.264ZM132.922 165V147.545H143.865V149.812H135.555V155.131H143.294V157.389H135.555V162.733H143.967V165H132.922ZM156.016 169.909V162.963H155.863C155.709 163.241 155.488 163.56 155.198 163.918C154.914 164.276 154.522 164.588 154.022 164.855C153.522 165.122 152.874 165.256 152.078 165.256C151.022 165.256 150.078 164.986 149.249 164.446C148.425 163.901 147.777 163.125 147.306 162.119C146.84 161.108 146.607 159.895 146.607 158.48C146.607 157.065 146.843 155.855 147.314 154.849C147.792 153.844 148.445 153.074 149.275 152.54C150.104 152.006 151.044 151.739 152.096 151.739C152.908 151.739 153.561 151.875 154.056 152.148C154.556 152.415 154.942 152.727 155.215 153.085C155.493 153.443 155.709 153.759 155.863 154.031H156.076V151.909H158.564V169.909H156.016ZM152.641 163.082C153.374 163.082 153.993 162.889 154.499 162.503C155.01 162.111 155.397 161.568 155.658 160.875C155.925 160.182 156.059 159.375 156.059 158.455C156.059 157.545 155.928 156.75 155.667 156.068C155.405 155.386 155.022 154.855 154.516 154.474C154.01 154.094 153.385 153.903 152.641 153.903C151.874 153.903 151.235 154.102 150.723 154.5C150.212 154.898 149.826 155.44 149.564 156.128C149.309 156.815 149.181 157.591 149.181 158.455C149.181 159.33 149.311 160.116 149.573 160.815C149.834 161.514 150.221 162.068 150.732 162.477C151.249 162.881 151.885 163.082 152.641 163.082ZM170.283 159.571V151.909H172.84V165H170.334V162.733H170.198C169.897 163.432 169.414 164.014 168.749 164.48C168.09 164.94 167.269 165.17 166.286 165.17C165.445 165.17 164.701 164.986 164.053 164.616C163.411 164.241 162.905 163.688 162.536 162.955C162.172 162.222 161.99 161.315 161.99 160.236V151.909H164.539V159.929C164.539 160.821 164.786 161.531 165.28 162.06C165.775 162.588 166.417 162.852 167.206 162.852C167.684 162.852 168.158 162.733 168.63 162.494C169.107 162.256 169.502 161.895 169.814 161.412C170.132 160.929 170.289 160.315 170.283 159.571ZM176.264 165V151.909H178.812V165H176.264ZM177.551 149.889C177.108 149.889 176.727 149.741 176.409 149.446C176.096 149.145 175.94 148.787 175.94 148.372C175.94 147.952 176.096 147.594 176.409 147.298C176.727 146.997 177.108 146.847 177.551 146.847C177.994 146.847 178.372 146.997 178.684 147.298C179.002 147.594 179.162 147.952 179.162 148.372C179.162 148.787 179.002 149.145 178.684 149.446C178.372 149.741 177.994 149.889 177.551 149.889ZM182.24 169.909V151.909H184.729V154.031H184.942C185.09 153.759 185.303 153.443 185.581 153.085C185.86 152.727 186.246 152.415 186.74 152.148C187.235 151.875 187.888 151.739 188.701 151.739C189.757 151.739 190.701 152.006 191.53 152.54C192.36 153.074 193.01 153.844 193.482 154.849C193.959 155.855 194.198 157.065 194.198 158.48C194.198 159.895 193.962 161.108 193.49 162.119C193.019 163.125 192.371 163.901 191.547 164.446C190.723 164.986 189.783 165.256 188.726 165.256C187.931 165.256 187.28 165.122 186.775 164.855C186.275 164.588 185.882 164.276 185.598 163.918C185.314 163.56 185.096 163.241 184.942 162.963H184.789V169.909H182.24ZM184.738 158.455C184.738 159.375 184.871 160.182 185.138 160.875C185.405 161.568 185.792 162.111 186.297 162.503C186.803 162.889 187.422 163.082 188.155 163.082C188.917 163.082 189.553 162.881 190.064 162.477C190.576 162.068 190.962 161.514 191.223 160.815C191.49 160.116 191.624 159.33 191.624 158.455C191.624 157.591 191.493 156.815 191.232 156.128C190.976 155.44 190.59 154.898 190.073 154.5C189.561 154.102 188.922 153.903 188.155 153.903C187.417 153.903 186.792 154.094 186.28 154.474C185.775 154.855 185.391 155.386 185.13 156.068C184.868 156.75 184.738 157.545 184.738 158.455ZM197.053 165V151.909H199.499V154.04H199.661C199.934 153.318 200.38 152.756 200.999 152.352C201.618 151.943 202.36 151.739 203.223 151.739C204.098 151.739 204.831 151.943 205.422 152.352C206.019 152.761 206.459 153.324 206.743 154.04H206.88C207.192 153.341 207.689 152.784 208.371 152.369C209.053 151.949 209.865 151.739 210.809 151.739C211.996 151.739 212.965 152.111 213.715 152.855C214.471 153.599 214.848 154.722 214.848 156.222V165H212.3V156.46C212.3 155.574 212.059 154.932 211.576 154.534C211.093 154.136 210.516 153.938 209.846 153.938C209.016 153.938 208.371 154.193 207.911 154.705C207.451 155.21 207.221 155.861 207.221 156.656V165H204.681V156.298C204.681 155.588 204.459 155.017 204.016 154.585C203.573 154.153 202.996 153.938 202.286 153.938C201.803 153.938 201.357 154.065 200.948 154.321C200.544 154.571 200.218 154.92 199.968 155.369C199.723 155.818 199.601 156.338 199.601 156.929V165H197.053ZM223.906 165.264C222.616 165.264 221.505 164.989 220.574 164.438C219.647 163.881 218.931 163.099 218.426 162.094C217.926 161.082 217.676 159.898 217.676 158.54C217.676 157.199 217.926 156.017 218.426 154.994C218.931 153.972 219.636 153.173 220.539 152.599C221.449 152.026 222.511 151.739 223.727 151.739C224.466 151.739 225.181 151.861 225.875 152.105C226.568 152.349 227.19 152.733 227.741 153.256C228.292 153.778 228.727 154.457 229.045 155.293C229.363 156.122 229.522 157.131 229.522 158.318V159.222H219.116V157.312H227.025C227.025 156.642 226.889 156.048 226.616 155.531C226.343 155.009 225.96 154.597 225.466 154.295C224.977 153.994 224.403 153.844 223.744 153.844C223.028 153.844 222.403 154.02 221.869 154.372C221.341 154.719 220.931 155.173 220.642 155.736C220.358 156.293 220.216 156.898 220.216 157.551V159.043C220.216 159.918 220.369 160.662 220.676 161.276C220.988 161.889 221.423 162.358 221.98 162.682C222.537 163 223.187 163.159 223.931 163.159C224.414 163.159 224.855 163.091 225.252 162.955C225.65 162.812 225.994 162.602 226.284 162.324C226.574 162.045 226.795 161.702 226.949 161.293L229.36 161.727C229.167 162.437 228.821 163.06 228.321 163.594C227.826 164.122 227.204 164.534 226.454 164.83C225.71 165.119 224.86 165.264 223.906 165.264ZM234.898 157.227V165H232.35V151.909H234.796V154.04H234.958C235.259 153.347 235.73 152.79 236.373 152.369C237.02 151.949 237.836 151.739 238.819 151.739C239.711 151.739 240.492 151.926 241.162 152.301C241.833 152.67 242.353 153.222 242.722 153.955C243.091 154.687 243.276 155.594 243.276 156.673V165H240.728V156.98C240.728 156.031 240.48 155.29 239.986 154.756C239.492 154.216 238.813 153.946 237.949 153.946C237.358 153.946 236.833 154.074 236.373 154.33C235.918 154.585 235.557 154.96 235.29 155.455C235.029 155.943 234.898 156.534 234.898 157.227ZM252.804 151.909V153.955H245.654V151.909H252.804ZM247.571 148.773H250.12V161.156C250.12 161.651 250.194 162.023 250.341 162.273C250.489 162.517 250.679 162.685 250.912 162.776C251.151 162.861 251.409 162.903 251.688 162.903C251.892 162.903 252.071 162.889 252.225 162.861C252.378 162.832 252.498 162.81 252.583 162.793L253.043 164.898C252.895 164.955 252.685 165.011 252.412 165.068C252.14 165.131 251.799 165.165 251.39 165.17C250.719 165.182 250.094 165.062 249.515 164.812C248.935 164.562 248.466 164.176 248.108 163.653C247.75 163.131 247.571 162.474 247.571 161.685V148.773Z" fill="#1D2939"/>
</g>
<rect x="0.5" y="0.5" width="263" height="245" rx="9.5" stroke="#35B6B4"/>
<defs>
<linearGradient id="paint0_linear_52_1535" x1="129.566" y1="42.6553" x2="129.36" y2="58.1011" gradientUnits="userSpaceOnUse">
<stop stop-color="#41DDB2"/>
<stop offset="0.5" stop-color="#1FD3E6"/>
<stop offset="0.741" stop-color="#17CEF5"/>
</linearGradient>
<clipPath id="clip0_52_1535">
<rect width="264" height="246" rx="10" fill="white"/>
</clipPath>
<clipPath id="clip1_52_1535">
<rect width="54" height="54" fill="white" transform="translate(102 33)"/>
</clipPath>
<clipPath id="clip2_52_1535">
<rect width="56" height="56" fill="white" transform="translate(102 33)"/>
</clipPath>
</defs>
</svg>
